<svg width="700" height="450" viewBox="0 0 700 450" fill="none" xmlns="http://www.w3.org/2000/svg">
<rect x="10" y="36" width="650" height="389" rx="20" fill="url(#paint0_radial_0_2)"/>
<path d="M63.4178 383L64.0418 370.364L63.4178 347.12H82.9178L82.3458 352.684H70.6458L70.3338 361.888H80.7338L80.1618 367.4H70.1258L70.0738 369.48L70.4378 377.488H83.0218L82.4498 383H63.4178ZM93.0676 383C91.0222 383 89.3409 382.359 88.0236 381.076C86.7409 379.759 86.0996 378.008 86.0996 375.824C86.0996 373.605 87.1049 371.699 89.1156 370.104C91.1262 368.475 93.5702 367.66 96.4476 367.66H99.9836V366.776C99.9836 365.077 99.6369 363.916 98.9436 363.292C98.2502 362.668 96.9502 362.356 95.0436 362.356C94.2462 362.356 93.2929 362.529 92.1836 362.876C91.1089 363.188 89.8956 363.691 88.5436 364.384L87.0356 360.276C88.5262 359.236 90.3289 358.3 92.4436 357.468C94.5929 356.636 96.3609 356.22 97.7476 356.22C103.19 356.22 105.912 358.855 105.912 364.124V374.316C105.912 376.257 106.518 378.424 107.732 380.816L102.22 383.156C101.353 381.492 100.712 380.001 100.296 378.684C98.3889 381.561 95.9796 383 93.0676 383ZM95.2516 377.696C96.6382 377.696 98.2156 376.985 99.9836 375.564V372.08C98.1462 371.664 96.6556 371.456 95.5116 371.456C93.3276 371.456 92.2356 372.427 92.2356 374.368C92.2356 375.373 92.5129 376.188 93.0676 376.812C93.6222 377.401 94.3502 377.696 95.2516 377.696ZM120.095 378.164C121.897 378.164 122.799 377.367 122.799 375.772C122.799 375.217 122.4 374.697 121.603 374.212C120.84 373.727 119.887 373.241 118.743 372.756C117.633 372.271 116.507 371.733 115.363 371.144C114.253 370.52 113.3 369.671 112.503 368.596C111.74 367.521 111.359 366.291 111.359 364.904C111.359 362.581 112.381 360.553 114.427 358.82C116.472 357.087 118.829 356.22 121.499 356.22C122.747 356.22 123.96 356.376 125.139 356.688C126.352 356.965 127.513 357.416 128.623 358.04L125.139 364.384C124.896 364.176 124.584 363.916 124.203 363.604C123.821 363.292 123.093 362.893 122.019 362.408C120.979 361.888 120.043 361.628 119.211 361.628C118.413 361.628 117.789 361.819 117.339 362.2C116.923 362.547 116.715 363.049 116.715 363.708C116.715 364.332 117.304 364.973 118.483 365.632C119.696 366.256 121.013 366.845 122.435 367.4C123.856 367.92 125.156 368.804 126.335 370.052C127.548 371.265 128.155 372.721 128.155 374.42C128.155 376.847 127.149 378.979 125.139 380.816C123.163 382.653 120.875 383.572 118.275 383.572C116.611 383.572 115.051 383.208 113.595 382.48C112.173 381.752 111.151 381.024 110.527 380.296L109.591 379.204L113.699 374.42C113.907 374.697 114.201 375.044 114.583 375.46C114.964 375.876 115.709 376.431 116.819 377.124C117.963 377.817 119.055 378.164 120.095 378.164ZM133.435 393.036L138.791 381.024L134.943 370.52L129.691 357.884L136.607 356.584L139.935 367.66L141.651 372.912H142.327L143.575 369.116L147.319 356.532L153.715 357.312L144.511 381.492L140.143 394.44L133.435 393.036ZM166.619 372.652C169.565 375.599 172.512 377.072 175.459 377.072C176.984 377.072 178.197 376.725 179.099 376.032C180.035 375.304 180.503 374.385 180.503 373.276C180.503 372.132 179.948 371.179 178.839 370.416C177.729 369.619 176.377 368.925 174.783 368.336C173.223 367.747 171.663 367.088 170.103 366.36C168.543 365.597 167.208 364.523 166.099 363.136C164.989 361.749 164.435 360.068 164.435 358.092C164.435 354.972 165.735 352.285 168.335 350.032C170.935 347.744 174.02 346.6 177.591 346.6C179.22 346.6 180.797 346.773 182.323 347.12C183.848 347.467 185.321 347.969 186.743 348.628L183.207 356.22C182.236 355.457 180.901 354.764 179.203 354.14C177.539 353.481 176.065 353.152 174.783 353.152C173.535 353.152 172.512 353.464 171.715 354.088C170.952 354.677 170.571 355.475 170.571 356.48C170.571 357.485 171.125 358.387 172.235 359.184C173.344 359.947 174.679 360.623 176.239 361.212C177.833 361.801 179.411 362.46 180.971 363.188C182.565 363.881 183.917 364.921 185.027 366.308C186.136 367.695 186.691 369.376 186.691 371.352C186.691 374.611 185.391 377.471 182.791 379.932C180.191 382.359 177.157 383.572 173.691 383.572C171.091 383.572 168.785 382.948 166.775 381.7C165.007 380.625 163.759 379.672 163.031 378.84L162.563 378.268L166.619 372.652ZM204.939 356.74C207.158 356.74 209.012 357.711 210.503 359.652C212.028 361.593 212.791 364.211 212.791 367.504C212.791 372.115 211.595 375.859 209.203 378.736C206.846 381.579 203.899 383 200.363 383C199.635 383 198.82 382.948 197.919 382.844L198.179 392.776L191.055 394.076L191.731 370.364H191.783C191.644 365.719 191.263 361.559 190.639 357.884L196.931 356.532C197.139 358.369 197.312 360.189 197.451 361.992C197.52 361.819 197.867 361.351 198.491 360.588C199.15 359.791 200.103 358.959 201.351 358.092C202.599 357.191 203.795 356.74 204.939 356.74ZM202.911 363.5C201.074 363.5 199.288 364.003 197.555 365.008V369.48L197.763 376.916C199.635 377.228 201.056 377.384 202.027 377.384C205.355 377.384 207.019 375.079 207.019 370.468C207.019 365.823 205.65 363.5 202.911 363.5ZM226.466 377.696C227.471 377.696 228.529 377.436 229.638 376.916C230.747 376.396 231.614 375.876 232.238 375.356L233.174 374.576L235.566 377.488C235.219 378.077 234.682 378.753 233.954 379.516C233.226 380.279 232.481 380.937 231.718 381.492C230.99 382.012 230.002 382.497 228.754 382.948C227.541 383.364 226.275 383.572 224.958 383.572C222.15 383.572 219.862 382.515 218.094 380.4C216.326 378.251 215.442 375.495 215.442 372.132C215.442 367.903 216.673 364.193 219.134 361.004C221.595 357.815 224.473 356.22 227.766 356.22C230.297 356.22 232.255 356.931 233.642 358.352C235.063 359.773 235.774 361.767 235.774 364.332C235.774 365.857 235.514 367.591 234.994 369.532L233.954 370.624L220.954 371.82C221.543 375.737 223.381 377.696 226.466 377.696ZM226.466 361.576C224.941 361.576 223.658 362.2 222.618 363.448C221.578 364.661 220.971 366.221 220.798 368.128L229.638 367.036C229.742 366.239 229.794 365.58 229.794 365.06C229.794 362.737 228.685 361.576 226.466 361.576ZM249.673 377.696C250.678 377.696 251.736 377.436 252.845 376.916C253.954 376.396 254.821 375.876 255.445 375.356L256.381 374.576L258.773 377.488C258.426 378.077 257.889 378.753 257.161 379.516C256.433 380.279 255.688 380.937 254.925 381.492C254.197 382.012 253.209 382.497 251.961 382.948C250.748 383.364 249.482 383.572 248.165 383.572C245.357 383.572 243.069 382.515 241.301 380.4C239.533 378.251 238.649 375.495 238.649 372.132C238.649 367.903 239.88 364.193 242.341 361.004C244.802 357.815 247.68 356.22 250.973 356.22C253.504 356.22 255.462 356.931 256.849 358.352C258.27 359.773 258.981 361.767 258.981 364.332C258.981 365.857 258.721 367.591 258.201 369.532L257.161 370.624L244.161 371.82C244.75 375.737 246.588 377.696 249.673 377.696ZM249.673 361.576C248.148 361.576 246.865 362.2 245.825 363.448C244.785 364.661 244.178 366.221 244.005 368.128L252.845 367.036C252.949 366.239 253.001 365.58 253.001 365.06C253.001 362.737 251.892 361.576 249.673 361.576ZM277.248 377.904C274.544 381.301 272.204 383 270.228 383C267.767 383 265.739 381.995 264.144 379.984C262.584 377.973 261.804 375.391 261.804 372.236C261.804 367.903 263 364.245 265.392 361.264C267.819 358.283 270.783 356.792 274.284 356.792L277.196 357.208V356.22L276.572 344.052L283.696 342.752L283.02 369.48V374.056C283.02 376.136 283.54 378.528 284.58 381.232L278.964 383.572C277.959 381.492 277.387 379.603 277.248 377.904ZM267.628 369.532C267.628 371.751 268.027 373.484 268.824 374.732C269.656 375.98 270.835 376.604 272.36 376.604C273.92 376.604 275.532 375.98 277.196 374.732V363.5C275.116 363.084 273.573 362.876 272.568 362.876C271.008 362.876 269.795 363.431 268.928 364.54C268.061 365.649 267.628 367.313 267.628 369.532ZM299.361 372.652C302.308 375.599 305.254 377.072 308.201 377.072C309.726 377.072 310.94 376.725 311.841 376.032C312.777 375.304 313.245 374.385 313.245 373.276C313.245 372.132 312.69 371.179 311.581 370.416C310.472 369.619 309.12 368.925 307.525 368.336C305.965 367.747 304.405 367.088 302.845 366.36C301.285 365.597 299.95 364.523 298.841 363.136C297.732 361.749 297.177 360.068 297.177 358.092C297.177 354.972 298.477 352.285 301.077 350.032C303.677 347.744 306.762 346.6 310.333 346.6C311.962 346.6 313.54 346.773 315.065 347.12C316.59 347.467 318.064 347.969 319.485 348.628L315.949 356.22C314.978 355.457 313.644 354.764 311.945 354.14C310.281 353.481 308.808 353.152 307.525 353.152C306.277 353.152 305.254 353.464 304.457 354.088C303.694 354.677 303.313 355.475 303.313 356.48C303.313 357.485 303.868 358.387 304.977 359.184C306.086 359.947 307.421 360.623 308.981 361.212C310.576 361.801 312.153 362.46 313.713 363.188C315.308 363.881 316.66 364.921 317.769 366.308C318.878 367.695 319.433 369.376 319.433 371.352C319.433 374.611 318.133 377.471 315.533 379.932C312.933 382.359 309.9 383.572 306.433 383.572C303.833 383.572 301.528 382.948 299.517 381.7C297.749 380.625 296.501 379.672 295.773 378.84L295.305 378.268L299.361 372.652ZM328.997 383C326.952 383 325.271 382.359 323.953 381.076C322.671 379.759 322.029 378.008 322.029 375.824C322.029 373.605 323.035 371.699 325.045 370.104C327.056 368.475 329.5 367.66 332.377 367.66H335.913V366.776C335.913 365.077 335.567 363.916 334.873 363.292C334.18 362.668 332.88 362.356 330.973 362.356C330.176 362.356 329.223 362.529 328.113 362.876C327.039 363.188 325.825 363.691 324.473 364.384L322.965 360.276C324.456 359.236 326.259 358.3 328.373 357.468C330.523 356.636 332.291 356.22 333.677 356.22C339.12 356.22 341.841 358.855 341.841 364.124V374.316C341.841 376.257 342.448 378.424 343.661 380.816L338.149 383.156C337.283 381.492 336.641 380.001 336.225 378.684C334.319 381.561 331.909 383 328.997 383ZM331.181 377.696C332.568 377.696 334.145 376.985 335.913 375.564V372.08C334.076 371.664 332.585 371.456 331.441 371.456C329.257 371.456 328.165 372.427 328.165 374.368C328.165 375.373 328.443 376.188 328.997 376.812C329.552 377.401 330.28 377.696 331.181 377.696ZM362.056 349.148C360.774 348.836 359.612 348.68 358.572 348.68C357.532 348.68 356.77 348.992 356.284 349.616C355.834 350.24 355.608 351.332 355.608 352.892L355.556 357.832H361.172L360.6 362.096H355.556L355.504 369.48L356.076 381.7L349.056 383L349.68 370.364L349.472 362.096H346.04L346.612 357.832H349.368L349.316 353.88C349.316 350.795 350.27 348.177 352.176 346.028C354.083 343.844 356.406 342.752 359.144 342.752C360.6 342.752 362.108 342.908 363.668 343.22L362.056 349.148ZM373.274 377.696C374.28 377.696 375.337 377.436 376.446 376.916C377.556 376.396 378.422 375.876 379.046 375.356L379.982 374.576L382.374 377.488C382.028 378.077 381.49 378.753 380.762 379.516C380.034 380.279 379.289 380.937 378.526 381.492C377.798 382.012 376.81 382.497 375.562 382.948C374.349 383.364 373.084 383.572 371.766 383.572C368.958 383.572 366.67 382.515 364.902 380.4C363.134 378.251 362.25 375.495 362.25 372.132C362.25 367.903 363.481 364.193 365.942 361.004C368.404 357.815 371.281 356.22 374.574 356.22C377.105 356.22 379.064 356.931 380.45 358.352C381.872 359.773 382.582 361.767 382.582 364.332C382.582 365.857 382.322 367.591 381.802 369.532L380.762 370.624L367.762 371.82C368.352 375.737 370.189 377.696 373.274 377.696ZM373.274 361.576C371.749 361.576 370.466 362.2 369.426 363.448C368.386 364.661 367.78 366.221 367.606 368.128L376.446 367.036C376.55 366.239 376.602 365.58 376.602 365.06C376.602 362.737 375.493 361.576 373.274 361.576ZM392.129 353.1L392.701 347.12H417.401L416.829 353.1L407.781 352.32L407.573 369.48L408.197 383H400.917L401.541 370.364L401.333 352.372L392.129 353.1ZM436.138 346.6C440.229 346.6 443.591 348.16 446.226 351.28C448.895 354.4 450.23 358.369 450.23 363.188C450.23 369.289 448.653 374.212 445.498 377.956C442.343 381.7 438.201 383.572 433.07 383.572C429.083 383.572 425.738 381.977 423.034 378.788C420.33 375.564 418.978 371.595 418.978 366.88C418.978 360.987 420.59 356.133 423.814 352.32C427.038 348.507 431.146 346.6 436.138 346.6ZM443.158 366.1C443.158 357.329 440.281 352.944 434.526 352.944C431.891 352.944 429.811 353.932 428.286 355.908C426.795 357.849 426.05 360.779 426.05 364.696C426.05 368.579 426.847 371.785 428.442 374.316C430.071 376.812 432.203 378.06 434.838 378.06C437.507 378.06 439.553 377.003 440.974 374.888C442.43 372.739 443.158 369.809 443.158 366.1ZM467.241 347.12C470.569 347.12 473.221 348.073 475.197 349.98C477.173 351.852 478.161 354.435 478.161 357.728C478.161 361.021 476.913 363.847 474.417 366.204C471.921 368.527 468.87 369.688 465.265 369.688H462.301L462.925 383H455.957L456.581 370.364L455.957 347.12H467.241ZM465.369 352.372H462.821L462.457 364.644H465.993C467.726 364.644 469.061 364.072 469.997 362.928C470.968 361.784 471.453 360.155 471.453 358.04C471.453 354.261 469.425 352.372 465.369 352.372ZM490.437 383L491.061 370.364L490.437 348.16L497.821 346.86L497.093 369.48L497.457 377.904L508.117 377.072L507.545 383H490.437ZM533.586 383.26L531.038 373.12H518.61L515.854 383L509.198 382.48L513.774 369.844L520.742 347.484L530.05 346.808L536.758 369.064L541.074 382.116L533.586 383.26ZM525.37 353.568H524.694L520.222 367.608H529.478L525.37 353.568ZM573.5 347.016L572.824 369.48L573.396 381.856L567.26 383.156L551.764 358.092V369.48L552.492 383H545.992L546.616 370.364L545.992 347.276L552.232 346.964L567.676 372.392L567.156 347.796L573.5 347.016ZM594.376 383.572C589.834 383.572 586.177 382.047 583.404 378.996C580.63 375.945 579.244 371.907 579.244 366.88C579.244 361.16 580.977 356.341 584.444 352.424C587.91 348.507 592.174 346.548 597.236 346.548C599.246 346.548 601.101 346.739 602.8 347.12C604.533 347.467 605.764 347.831 606.492 348.212L607.532 348.784L604.516 356.012C603.476 355.319 602.072 354.677 600.304 354.088C598.536 353.464 596.976 353.152 595.624 353.152C592.816 353.152 590.562 354.14 588.864 356.116C587.165 358.092 586.316 360.709 586.316 363.968C586.316 368.371 587.113 371.803 588.708 374.264C590.337 376.725 592.59 377.956 595.468 377.956C597.34 377.956 599.108 377.696 600.772 377.176V369.116H594.064L594.584 363.864H607.064L606.596 372.34L606.96 381.336C601.864 382.827 597.669 383.572 594.376 383.572Z" fill="#9CB887"/>
<path d="M65.096 149.625H65.708L68.258 140.853L73.613 120.504L79.784 121.422L73.715 141.669L69.737 155.592L60.302 156.255L56.681 142.638L50.765 121.779L58.007 120.504L62.648 140.19L65.096 149.625ZM90.3223 130.041L89.7103 142.74L90.2713 154.725L83.4373 156L84.0493 143.607L83.4883 131.316L90.3223 130.041ZM83.1313 122.595C83.1313 121.439 83.5733 120.419 84.4573 119.535C85.3413 118.617 86.3613 118.158 87.5173 118.158C88.6733 118.158 89.5573 118.481 90.1693 119.127C90.7813 119.739 91.0873 120.674 91.0873 121.932C91.0873 123.19 90.6453 124.278 89.7613 125.196C88.9113 126.08 87.9083 126.522 86.7523 126.522C85.6303 126.522 84.7463 126.148 84.1003 125.4C83.4543 124.652 83.1313 123.717 83.1313 122.595ZM97.9284 131.316V125.757L104.813 124.431L104.15 131.316H110.321L109.76 135.498H103.946L103.691 146.157C103.691 147.755 103.844 148.826 104.15 149.37C104.456 149.88 105.017 150.135 105.833 150.135C106.649 150.135 107.737 149.948 109.097 149.574L109.403 153.195C107.159 155.065 105.187 156 103.487 156C101.787 156 100.393 155.388 99.3054 154.164C98.2174 152.906 97.6734 151.274 97.6734 149.268L97.9794 143.556L97.9284 135.498H94.4094L94.9704 131.316H97.9284ZM123.248 150.798C124.234 150.798 125.271 150.543 126.359 150.033C127.447 149.523 128.297 149.013 128.909 148.503L129.827 147.738L132.173 150.594C131.833 151.172 131.306 151.835 130.592 152.583C129.878 153.331 129.147 153.977 128.399 154.521C127.685 155.031 126.716 155.507 125.492 155.949C124.302 156.357 123.061 156.561 121.769 156.561C119.015 156.561 116.771 155.524 115.037 153.45C113.303 151.342 112.436 148.639 112.436 145.341C112.436 141.193 113.643 137.555 116.057 134.427C118.471 131.299 121.293 129.735 124.523 129.735C127.005 129.735 128.926 130.432 130.286 131.826C131.68 133.22 132.377 135.175 132.377 137.691C132.377 139.187 132.122 140.887 131.612 142.791L130.592 143.862L117.842 145.035C118.42 148.877 120.222 150.798 123.248 150.798ZM123.248 134.988C121.752 134.988 120.494 135.6 119.474 136.824C118.454 138.014 117.859 139.544 117.689 141.414L126.359 140.343C126.461 139.561 126.512 138.915 126.512 138.405C126.512 136.127 125.424 134.988 123.248 134.988Z" fill="#A4FF90"/>
<path d="M68.56 249.16C77.6267 258.227 86.6933 262.76 95.76 262.76C100.453 262.76 104.187 261.693 106.96 259.56C109.84 257.32 111.28 254.493 111.28 251.08C111.28 247.56 109.573 244.627 106.16 242.28C102.747 239.827 98.5867 237.693 93.68 235.88C88.88 234.067 84.08 232.04 79.28 229.8C74.48 227.453 70.3733 224.147 66.96 219.88C63.5467 215.613 61.84 210.44 61.84 204.36C61.84 194.76 65.84 186.493 73.84 179.56C81.84 172.52 91.3333 169 102.32 169C107.333 169 112.187 169.533 116.88 170.6C121.573 171.667 126.107 173.213 130.48 175.24L119.6 198.6C116.613 196.253 112.507 194.12 107.28 192.2C102.16 190.173 97.6267 189.16 93.68 189.16C89.84 189.16 86.6933 190.12 84.24 192.04C81.8933 193.853 80.72 196.307 80.72 199.4C80.72 202.493 82.4267 205.267 85.84 207.72C89.2533 210.067 93.36 212.147 98.16 213.96C103.067 215.773 107.92 217.8 112.72 220.04C117.627 222.173 121.787 225.373 125.2 229.64C128.613 233.907 130.32 239.08 130.32 245.16C130.32 255.187 126.32 263.987 118.32 271.56C110.32 279.027 100.987 282.76 90.32 282.76C82.32 282.76 75.2267 280.84 69.04 277C63.6 273.693 59.76 270.76 57.52 268.2L56.08 266.44L68.56 249.16ZM190.469 240.52C190.469 233.16 189.829 228.253 188.549 225.8C187.269 223.347 184.282 222.12 179.589 222.12C174.895 222.12 169.562 223.987 163.589 227.72V239.4L165.349 277L143.749 281L145.669 242.12L143.749 161.16L165.669 157.16L163.589 198.6V217.32C165.189 215.187 167.002 213.107 169.029 211.08C171.055 209.053 174.202 206.76 178.469 204.2C182.735 201.64 187.269 200.36 192.069 200.36C196.975 200.36 201.082 202.28 204.389 206.12C207.695 209.853 209.349 214.973 209.349 221.48L208.389 239.4L210.149 277.8L188.549 281.8L190.469 240.52ZM243.811 281C237.518 281 232.345 279.027 228.291 275.08C224.345 271.027 222.371 265.64 222.371 258.92C222.371 252.093 225.465 246.227 231.651 241.32C237.838 236.307 245.358 233.8 254.211 233.8H265.091V231.08C265.091 225.853 264.025 222.28 261.891 220.36C259.758 218.44 255.758 217.48 249.891 217.48C247.438 217.48 244.505 218.013 241.091 219.08C237.785 220.04 234.051 221.587 229.891 223.72L225.251 211.08C229.838 207.88 235.385 205 241.891 202.44C248.505 199.88 253.945 198.6 258.211 198.6C274.958 198.6 283.331 206.707 283.331 222.92V254.28C283.331 260.253 285.198 266.92 288.931 274.28L271.971 281.48C269.305 276.36 267.331 271.773 266.051 267.72C260.185 276.573 252.771 281 243.811 281ZM250.531 264.68C254.798 264.68 259.651 262.493 265.091 258.12V247.4C259.438 246.12 254.851 245.48 251.331 245.48C244.611 245.48 241.251 248.467 241.251 254.44C241.251 257.533 242.105 260.04 243.811 261.96C245.518 263.773 247.758 264.68 250.531 264.68ZM301.051 203.72L320.411 199.56C321.371 207.773 322.011 215.56 322.331 222.92C332.038 207.88 341.158 200.36 349.691 200.36L347.931 225.32C341.745 225.32 336.838 225.907 333.211 227.08C329.691 228.147 326.065 230.333 322.331 233.64V239.4L324.091 277L302.651 281L304.571 242.12C304.145 227.827 302.971 215.027 301.051 203.72ZM402.563 200.2C409.389 200.2 415.096 203.187 419.683 209.16C424.376 215.133 426.723 223.187 426.723 233.32C426.723 247.507 423.043 259.027 415.683 267.88C408.429 276.627 399.363 281 388.483 281C386.243 281 383.736 280.84 380.963 280.52L381.763 311.08L359.843 315.08L361.923 242.12H362.083C361.656 227.827 360.483 215.027 358.563 203.72L377.923 199.56C378.563 205.213 379.096 210.813 379.523 216.36C379.736 215.827 380.803 214.387 382.723 212.04C384.749 209.587 387.683 207.027 391.523 204.36C395.363 201.587 399.043 200.2 402.563 200.2ZM396.323 221C390.669 221 385.176 222.547 379.843 225.64V239.4L380.483 262.28C386.243 263.24 390.616 263.72 393.603 263.72C403.843 263.72 408.963 256.627 408.963 242.44C408.963 228.147 404.749 221 396.323 221Z" fill="white"/>
<path d="M389.15 104.5C390.417 104.233 391.767 104.017 393.2 103.85C394.667 103.683 396.283 103.6 398.05 103.6C400.75 103.6 403 104.083 404.8 105.05C406.6 105.983 407.933 107.233 408.8 108.8C409.7 110.333 410.15 111.983 410.15 113.75C410.15 116.483 409.483 118.783 408.15 120.65C406.817 122.483 404.983 123.883 402.65 124.85C400.317 125.783 397.667 126.25 394.7 126.25C393.9 126.25 393.1 126.217 392.3 126.15C391.533 126.05 390.817 125.917 390.15 125.75L387.85 139H383.1L389.15 104.5ZM397.55 107.55C396.65 107.55 395.85 107.583 395.15 107.65C394.483 107.717 393.867 107.8 393.3 107.9L390.85 121.75C391.517 121.95 392.233 122.1 393 122.2C393.8 122.267 394.583 122.3 395.35 122.3C398.917 122.3 401.5 121.55 403.1 120.05C404.7 118.55 405.5 116.633 405.5 114.3C405.5 112.333 404.8 110.717 403.4 109.45C402.033 108.183 400.083 107.55 397.55 107.55ZM414.879 120.3C414.912 120.133 414.929 119.95 414.929 119.75C414.962 119.517 414.979 119.283 414.979 119.05C414.979 118.117 414.712 117.467 414.179 117.1C413.645 116.7 412.945 116.5 412.079 116.5L413.629 113C415.395 113 416.745 113.433 417.679 114.3C418.645 115.133 419.129 116.383 419.129 118.05V119.05C420.095 116.683 421.329 114.983 422.829 113.95C424.362 112.917 426.095 112.4 428.029 112.4C428.795 112.4 429.445 112.467 429.979 112.6C430.545 112.7 431.012 112.833 431.379 113L429.379 117.4C428.979 117.233 428.562 117.117 428.129 117.05C427.695 116.983 427.195 116.95 426.629 116.95C425.429 116.95 424.229 117.383 423.029 118.25C421.862 119.083 420.795 120.483 419.829 122.45C418.895 124.417 418.129 127.117 417.529 130.55L416.079 139H411.579L414.879 120.3ZM442.654 139.6C440.187 139.6 438.054 139.1 436.254 138.1C434.454 137.1 433.054 135.717 432.054 133.95C431.087 132.15 430.604 130.117 430.604 127.85C430.604 124.95 431.187 122.333 432.354 120C433.554 117.667 435.221 115.817 437.354 114.45C439.487 113.083 442.004 112.4 444.904 112.4C447.371 112.4 449.504 112.9 451.304 113.9C453.104 114.9 454.487 116.283 455.454 118.05C456.454 119.817 456.954 121.85 456.954 124.15C456.954 127.017 456.371 129.633 455.204 132C454.037 134.333 452.371 136.183 450.204 137.55C448.071 138.917 445.554 139.6 442.654 139.6ZM442.804 135.6C444.804 135.6 446.504 135.117 447.904 134.15C449.337 133.15 450.437 131.817 451.204 130.15C451.971 128.483 452.354 126.617 452.354 124.55C452.354 123.017 452.054 121.65 451.454 120.45C450.854 119.217 449.987 118.233 448.854 117.5C447.721 116.767 446.354 116.4 444.754 116.4C442.787 116.4 441.087 116.9 439.654 117.9C438.221 118.867 437.121 120.183 436.354 121.85C435.587 123.517 435.204 125.383 435.204 127.45C435.204 128.95 435.504 130.317 436.104 131.55C436.704 132.783 437.571 133.767 438.704 134.5C439.837 135.233 441.204 135.6 442.804 135.6ZM477.133 112.4C479.1 112.4 480.833 112.6 482.333 113C483.833 113.4 485.067 113.8 486.033 114.2L481.683 139.3C481.283 141.6 480.667 143.483 479.833 144.95C479.033 146.417 478.083 147.55 476.983 148.35C475.917 149.183 474.783 149.767 473.583 150.1C472.383 150.433 471.2 150.6 470.033 150.6C467.767 150.6 465.833 150.133 464.233 149.2C462.667 148.267 461.383 147.183 460.383 145.95L463.883 143.35C465.517 145.583 467.667 146.7 470.333 146.7C472 146.7 473.467 146.083 474.733 144.85C476 143.617 476.9 141.517 477.433 138.55L478.283 133.65C477.35 135.15 476.183 136.417 474.783 137.45C473.417 138.483 471.867 139 470.133 139C468.533 139 467 138.6 465.533 137.8C464.1 137 462.917 135.833 461.983 134.3C461.083 132.767 460.633 130.883 460.633 128.65C460.633 125.417 461.35 122.583 462.783 120.15C464.217 117.717 466.183 115.817 468.683 114.45C471.183 113.083 474 112.4 477.133 112.4ZM465.233 128.15C465.233 129.65 465.517 130.917 466.083 131.95C466.683 132.95 467.45 133.717 468.383 134.25C469.317 134.75 470.3 135 471.333 135C472.6 135 473.8 134.55 474.933 133.65C476.067 132.75 477.05 131.483 477.883 129.85C478.75 128.217 479.383 126.3 479.783 124.1L481.083 116.85C480.45 116.65 479.783 116.5 479.083 116.4C478.383 116.267 477.567 116.2 476.633 116.2C474.4 116.2 472.417 116.733 470.683 117.8C468.983 118.833 467.65 120.25 466.683 122.05C465.717 123.85 465.233 125.883 465.233 128.15ZM493.541 120.3C493.574 120.133 493.591 119.95 493.591 119.75C493.624 119.517 493.641 119.283 493.641 119.05C493.641 118.117 493.374 117.467 492.841 117.1C492.307 116.7 491.607 116.5 490.741 116.5L492.291 113C494.057 113 495.407 113.433 496.341 114.3C497.307 115.133 497.791 116.383 497.791 118.05V119.05C498.757 116.683 499.991 114.983 501.491 113.95C503.024 112.917 504.757 112.4 506.691 112.4C507.457 112.4 508.107 112.467 508.641 112.6C509.207 112.7 509.674 112.833 510.041 113L508.041 117.4C507.641 117.233 507.224 117.117 506.791 117.05C506.357 116.983 505.857 116.95 505.291 116.95C504.091 116.95 502.891 117.383 501.691 118.25C500.524 119.083 499.457 120.483 498.491 122.45C497.557 124.417 496.791 127.117 496.191 130.55L494.741 139H490.241L493.541 120.3ZM509.266 128.75C509.266 125.517 509.966 122.683 511.366 120.25C512.799 117.783 514.766 115.867 517.266 114.5C519.766 113.1 522.616 112.4 525.816 112.4C527.783 112.4 529.499 112.6 530.966 113C532.466 113.4 533.699 113.8 534.666 114.2L531.516 131.95C531.483 132.117 531.449 132.317 531.416 132.55C531.416 132.75 531.416 132.967 531.416 133.2C531.416 134.133 531.683 134.8 532.216 135.2C532.749 135.567 533.449 135.75 534.316 135.75L532.766 139.25C530.966 139.25 529.583 138.817 528.616 137.95C527.683 137.05 527.216 135.667 527.216 133.8C526.283 135.4 525.099 136.767 523.666 137.9C522.266 139.033 520.616 139.6 518.716 139.6C517.083 139.6 515.549 139.167 514.116 138.3C512.683 137.4 511.516 136.15 510.616 134.55C509.716 132.917 509.266 130.983 509.266 128.75ZM529.716 116.85C529.083 116.65 528.416 116.5 527.716 116.4C527.049 116.267 526.233 116.2 525.266 116.2C522.966 116.2 520.966 116.717 519.266 117.75C517.566 118.783 516.233 120.217 515.266 122.05C514.333 123.85 513.866 125.9 513.866 128.2C513.866 129.8 514.149 131.15 514.716 132.25C515.316 133.35 516.083 134.183 517.016 134.75C517.949 135.317 518.916 135.6 519.916 135.6C521.283 135.6 522.533 135.133 523.666 134.2C524.799 133.267 525.766 131.967 526.566 130.3C527.399 128.633 527.999 126.733 528.366 124.6L529.716 116.85ZM571.506 116.35C570.406 116.35 569.206 116.767 567.906 117.6C566.606 118.433 565.423 119.733 564.356 121.5C563.289 123.233 562.506 125.483 562.006 128.25L560.106 139H555.606L558.456 123.45C558.623 122.65 558.723 122.067 558.756 121.7C558.789 121.3 558.806 120.933 558.806 120.6C558.806 119.3 558.423 118.267 557.656 117.5C556.923 116.733 555.956 116.35 554.756 116.35C553.589 116.35 552.356 116.783 551.056 117.65C549.756 118.517 548.573 119.867 547.506 121.7C546.439 123.5 545.656 125.817 545.156 128.65L543.356 139H538.856L543.406 113H547.756L546.656 119C547.656 117 549.006 115.4 550.706 114.2C552.439 113 554.223 112.4 556.056 112.4C558.123 112.4 559.789 113.033 561.056 114.3C562.323 115.533 563.039 117.1 563.206 119C564.339 116.933 565.723 115.317 567.356 114.15C569.023 112.983 570.823 112.4 572.756 112.4C574.989 112.4 576.756 113.1 578.056 114.5C579.389 115.867 580.056 117.55 580.056 119.55C580.056 120.383 579.956 121.433 579.756 122.7L576.856 139H572.356L575.206 123.45C575.373 122.65 575.473 122.067 575.506 121.7C575.539 121.3 575.556 120.933 575.556 120.6C575.556 119.3 575.173 118.267 574.406 117.5C573.673 116.733 572.706 116.35 571.506 116.35ZM617.16 116.35C616.06 116.35 614.86 116.767 613.56 117.6C612.26 118.433 611.077 119.733 610.01 121.5C608.943 123.233 608.16 125.483 607.66 128.25L605.76 139H601.26L604.11 123.45C604.277 122.65 604.377 122.067 604.41 121.7C604.443 121.3 604.46 120.933 604.46 120.6C604.46 119.3 604.077 118.267 603.31 117.5C602.577 116.733 601.61 116.35 600.41 116.35C599.243 116.35 598.01 116.783 596.71 117.65C595.41 118.517 594.227 119.867 593.16 121.7C592.093 123.5 591.31 125.817 590.81 128.65L589.01 139H584.51L589.06 113H593.41L592.31 119C593.31 117 594.66 115.4 596.36 114.2C598.093 113 599.877 112.4 601.71 112.4C603.777 112.4 605.443 113.033 606.71 114.3C607.977 115.533 608.693 117.1 608.86 119C609.993 116.933 611.377 115.317 613.01 114.15C614.677 112.983 616.477 112.4 618.41 112.4C620.643 112.4 622.41 113.1 623.71 114.5C625.043 115.867 625.71 117.55 625.71 119.55C625.71 120.383 625.61 121.433 625.41 122.7L622.51 139H618.01L620.86 123.45C621.027 122.65 621.127 122.067 621.16 121.7C621.193 121.3 621.21 120.933 621.21 120.6C621.21 119.3 620.827 118.267 620.06 117.5C619.327 116.733 618.36 116.35 617.16 116.35ZM638.014 108.55C637.081 108.55 636.364 108.283 635.864 107.75C635.398 107.183 635.164 106.533 635.164 105.8C635.164 104.733 635.498 103.883 636.164 103.25C636.831 102.583 637.664 102.25 638.664 102.25C639.598 102.25 640.298 102.533 640.764 103.1C641.264 103.633 641.514 104.267 641.514 105C641.514 106.033 641.181 106.883 640.514 107.55C639.848 108.217 639.014 108.55 638.014 108.55ZM634.664 139H630.164L634.714 113H639.214L634.664 139ZM659.307 116.35C658.141 116.35 656.874 116.783 655.507 117.65C654.141 118.517 652.874 119.867 651.707 121.7C650.574 123.5 649.757 125.817 649.257 128.65L647.457 139H642.957L647.507 113H651.857L650.757 119C651.791 117 653.174 115.4 654.907 114.2C656.674 113 658.524 112.4 660.457 112.4C662.724 112.4 664.541 113.1 665.907 114.5C667.274 115.867 667.957 117.55 667.957 119.55C667.957 120.383 667.857 121.433 667.657 122.7L664.807 139H660.307L663.057 123.45C663.224 122.65 663.324 122.067 663.357 121.7C663.391 121.3 663.407 120.933 663.407 120.6C663.407 119.3 663.024 118.267 662.257 117.5C661.524 116.733 660.541 116.35 659.307 116.35ZM688.901 112.4C690.867 112.4 692.601 112.6 694.101 113C695.601 113.4 696.834 113.8 697.801 114.2L693.451 139.3C693.051 141.6 692.434 143.483 691.601 144.95C690.801 146.417 689.851 147.55 688.751 148.35C687.684 149.183 686.551 149.767 685.351 150.1C684.151 150.433 682.967 150.6 681.801 150.6C679.534 150.6 677.601 150.133 676.001 149.2C674.434 148.267 673.151 147.183 672.151 145.95L675.651 143.35C677.284 145.583 679.434 146.7 682.101 146.7C683.767 146.7 685.234 146.083 686.501 144.85C687.767 143.617 688.667 141.517 689.201 138.55L690.051 133.65C689.117 135.15 687.951 136.417 686.551 137.45C685.184 138.483 683.634 139 681.901 139C680.301 139 678.767 138.6 677.301 137.8C675.867 137 674.684 135.833 673.751 134.3C672.851 132.767 672.401 130.883 672.401 128.65C672.401 125.417 673.117 122.583 674.551 120.15C675.984 117.717 677.951 115.817 680.451 114.45C682.951 113.083 685.767 112.4 688.901 112.4ZM677.001 128.15C677.001 129.65 677.284 130.917 677.851 131.95C678.451 132.95 679.217 133.717 680.151 134.25C681.084 134.75 682.067 135 683.101 135C684.367 135 685.567 134.55 686.701 133.65C687.834 132.75 688.817 131.483 689.651 129.85C690.517 128.217 691.151 126.3 691.551 124.1L692.851 116.85C692.217 116.65 691.551 116.5 690.851 116.4C690.151 116.267 689.334 116.2 688.401 116.2C686.167 116.2 684.184 116.733 682.451 117.8C680.751 118.833 679.417 120.25 678.451 122.05C677.484 123.85 677.001 125.883 677.001 128.15ZM389.25 163H394L388.6 193.75H404.65L403.9 198H383.1L389.25 163ZM407.606 187.75C407.606 184.517 408.306 181.683 409.706 179.25C411.139 176.783 413.106 174.867 415.606 173.5C418.106 172.1 420.956 171.4 424.156 171.4C426.123 171.4 427.839 171.6 429.306 172C430.806 172.4 432.039 172.8 433.006 173.2L429.856 190.95C429.823 191.117 429.789 191.317 429.756 191.55C429.756 191.75 429.756 191.967 429.756 192.2C429.756 193.133 430.023 193.8 430.556 194.2C431.089 194.567 431.789 194.75 432.656 194.75L431.106 198.25C429.306 198.25 427.923 197.817 426.956 196.95C426.023 196.05 425.556 194.667 425.556 192.8C424.623 194.4 423.439 195.767 422.006 196.9C420.606 198.033 418.956 198.6 417.056 198.6C415.423 198.6 413.889 198.167 412.456 197.3C411.023 196.4 409.856 195.15 408.956 193.55C408.056 191.917 407.606 189.983 407.606 187.75ZM428.056 175.85C427.423 175.65 426.756 175.5 426.056 175.4C425.389 175.267 424.573 175.2 423.606 175.2C421.306 175.2 419.306 175.717 417.606 176.75C415.906 177.783 414.573 179.217 413.606 181.05C412.673 182.85 412.206 184.9 412.206 187.2C412.206 188.8 412.489 190.15 413.056 191.25C413.656 192.35 414.423 193.183 415.356 193.75C416.289 194.317 417.256 194.6 418.256 194.6C419.623 194.6 420.873 194.133 422.006 193.2C423.139 192.267 424.106 190.967 424.906 189.3C425.739 187.633 426.339 185.733 426.706 183.6L428.056 175.85ZM453.546 175.35C452.379 175.35 451.112 175.783 449.746 176.65C448.379 177.517 447.112 178.867 445.946 180.7C444.812 182.5 443.996 184.817 443.496 187.65L441.696 198H437.196L441.746 172H446.096L444.996 178C446.029 176 447.412 174.4 449.146 173.2C450.912 172 452.762 171.4 454.696 171.4C456.962 171.4 458.779 172.1 460.146 173.5C461.512 174.867 462.196 176.55 462.196 178.55C462.196 179.383 462.096 180.433 461.896 181.7L459.046 198H454.546L457.296 182.45C457.462 181.65 457.562 181.067 457.596 180.7C457.629 180.3 457.646 179.933 457.646 179.6C457.646 178.3 457.262 177.267 456.496 176.5C455.762 175.733 454.779 175.35 453.546 175.35ZM483.139 171.4C485.106 171.4 486.839 171.6 488.339 172C489.839 172.4 491.072 172.8 492.039 173.2L487.689 198.3C487.289 200.6 486.672 202.483 485.839 203.95C485.039 205.417 484.089 206.55 482.989 207.35C481.922 208.183 480.789 208.767 479.589 209.1C478.389 209.433 477.206 209.6 476.039 209.6C473.772 209.6 471.839 209.133 470.239 208.2C468.672 207.267 467.389 206.183 466.389 204.95L469.889 202.35C471.522 204.583 473.672 205.7 476.339 205.7C478.006 205.7 479.472 205.083 480.739 203.85C482.006 202.617 482.906 200.517 483.439 197.55L484.289 192.65C483.356 194.15 482.189 195.417 480.789 196.45C479.422 197.483 477.872 198 476.139 198C474.539 198 473.006 197.6 471.539 196.8C470.106 196 468.922 194.833 467.989 193.3C467.089 191.767 466.639 189.883 466.639 187.65C466.639 184.417 467.356 181.583 468.789 179.15C470.222 176.717 472.189 174.817 474.689 173.45C477.189 172.083 480.006 171.4 483.139 171.4ZM471.239 187.15C471.239 188.65 471.522 189.917 472.089 190.95C472.689 191.95 473.456 192.717 474.389 193.25C475.322 193.75 476.306 194 477.339 194C478.606 194 479.806 193.55 480.939 192.65C482.072 191.75 483.056 190.483 483.889 188.85C484.756 187.217 485.389 185.3 485.789 183.1L487.089 175.85C486.456 175.65 485.789 175.5 485.089 175.4C484.389 175.267 483.572 175.2 482.639 175.2C480.406 175.2 478.422 175.733 476.689 176.8C474.989 177.833 473.656 179.25 472.689 181.05C471.722 182.85 471.239 184.883 471.239 187.15ZM503.346 198.6C502.013 198.6 500.78 198.3 499.646 197.7C498.546 197.1 497.663 196.267 496.996 195.2C496.33 194.1 495.996 192.8 495.996 191.3C495.996 190.867 496.013 190.433 496.046 190C496.08 189.533 496.13 189.05 496.196 188.55L499.046 172H503.546L500.646 188.45C500.613 188.783 500.58 189.083 500.546 189.35C500.513 189.583 500.496 189.85 500.496 190.15C500.496 191.65 500.93 192.767 501.796 193.5C502.663 194.233 503.68 194.6 504.846 194.6C506.113 194.6 507.346 194.217 508.546 193.45C509.78 192.65 510.863 191.517 511.796 190.05C512.73 188.583 513.38 186.817 513.746 184.75L515.996 172H520.496L517.196 190.95C517.163 191.117 517.13 191.317 517.096 191.55C517.096 191.75 517.096 191.967 517.096 192.2C517.096 193.133 517.363 193.8 517.896 194.2C518.43 194.567 519.13 194.75 519.996 194.75L518.446 198.25C516.646 198.25 515.263 197.817 514.296 196.95C513.363 196.05 512.896 194.667 512.896 192.8V192.35C510.463 196.517 507.28 198.6 503.346 198.6ZM524.207 187.75C524.207 184.517 524.907 181.683 526.307 179.25C527.741 176.783 529.707 174.867 532.207 173.5C534.707 172.1 537.557 171.4 540.757 171.4C542.724 171.4 544.441 171.6 545.907 172C547.407 172.4 548.641 172.8 549.607 173.2L546.457 190.95C546.424 191.117 546.391 191.317 546.357 191.55C546.357 191.75 546.357 191.967 546.357 192.2C546.357 193.133 546.624 193.8 547.157 194.2C547.691 194.567 548.391 194.75 549.257 194.75L547.707 198.25C545.907 198.25 544.524 197.817 543.557 196.95C542.624 196.05 542.157 194.667 542.157 192.8C541.224 194.4 540.041 195.767 538.607 196.9C537.207 198.033 535.557 198.6 533.657 198.6C532.024 198.6 530.491 198.167 529.057 197.3C527.624 196.4 526.457 195.15 525.557 193.55C524.657 191.917 524.207 189.983 524.207 187.75ZM544.657 175.85C544.024 175.65 543.357 175.5 542.657 175.4C541.991 175.267 541.174 175.2 540.207 175.2C537.907 175.2 535.907 175.717 534.207 176.75C532.507 177.783 531.174 179.217 530.207 181.05C529.274 182.85 528.807 184.9 528.807 187.2C528.807 188.8 529.091 190.15 529.657 191.25C530.257 192.35 531.024 193.183 531.957 193.75C532.891 194.317 533.857 194.6 534.857 194.6C536.224 194.6 537.474 194.133 538.607 193.2C539.741 192.267 540.707 190.967 541.507 189.3C542.341 187.633 542.941 185.733 543.307 183.6L544.657 175.85ZM570.053 171.4C572.02 171.4 573.753 171.6 575.253 172C576.753 172.4 577.986 172.8 578.953 173.2L574.603 198.3C574.203 200.6 573.586 202.483 572.753 203.95C571.953 205.417 571.003 206.55 569.903 207.35C568.836 208.183 567.703 208.767 566.503 209.1C565.303 209.433 564.12 209.6 562.953 209.6C560.686 209.6 558.753 209.133 557.153 208.2C555.586 207.267 554.303 206.183 553.303 204.95L556.803 202.35C558.436 204.583 560.586 205.7 563.253 205.7C564.92 205.7 566.386 205.083 567.653 203.85C568.92 202.617 569.82 200.517 570.353 197.55L571.203 192.65C570.27 194.15 569.103 195.417 567.703 196.45C566.336 197.483 564.786 198 563.053 198C561.453 198 559.92 197.6 558.453 196.8C557.02 196 555.836 194.833 554.903 193.3C554.003 191.767 553.553 189.883 553.553 187.65C553.553 184.417 554.27 181.583 555.703 179.15C557.136 176.717 559.103 174.817 561.603 173.45C564.103 172.083 566.92 171.4 570.053 171.4ZM558.153 187.15C558.153 188.65 558.436 189.917 559.003 190.95C559.603 191.95 560.37 192.717 561.303 193.25C562.236 193.75 563.22 194 564.253 194C565.52 194 566.72 193.55 567.853 192.65C568.986 191.75 569.97 190.483 570.803 188.85C571.67 187.217 572.303 185.3 572.703 183.1L574.003 175.85C573.37 175.65 572.703 175.5 572.003 175.4C571.303 175.267 570.486 175.2 569.553 175.2C567.32 175.2 565.336 175.733 563.603 176.8C561.903 177.833 560.57 179.25 559.603 181.05C558.636 182.85 558.153 184.883 558.153 187.15ZM593.611 198.6C591.411 198.6 589.461 198.133 587.761 197.2C586.094 196.233 584.777 194.867 583.811 193.1C582.877 191.3 582.411 189.183 582.411 186.75C582.411 183.983 582.977 181.433 584.111 179.1C585.277 176.767 586.911 174.9 589.011 173.5C591.144 172.1 593.627 171.4 596.461 171.4C598.394 171.4 600.027 171.767 601.361 172.5C602.727 173.233 603.777 174.183 604.511 175.35C605.244 176.517 605.611 177.767 605.611 179.1C605.611 180.933 605.177 182.45 604.311 183.65C603.444 184.85 602.327 185.783 600.961 186.45C599.594 187.083 598.111 187.533 596.511 187.8C594.944 188.067 593.444 188.2 592.011 188.2C591.111 188.2 590.211 188.167 589.311 188.1C588.444 188 587.677 187.9 587.011 187.8C587.277 190 588.061 191.683 589.361 192.85C590.661 194.017 592.327 194.6 594.361 194.6C596.027 194.6 597.511 194.383 598.811 193.95C600.111 193.517 601.211 193.083 602.111 192.65L602.511 196.65C601.511 197.117 600.244 197.567 598.711 198C597.177 198.4 595.477 198.6 593.611 198.6ZM596.111 175.2C594.544 175.2 593.127 175.6 591.861 176.4C590.594 177.167 589.544 178.233 588.711 179.6C587.911 180.933 587.377 182.467 587.111 184.2C587.877 184.333 588.644 184.45 589.411 184.55C590.211 184.617 591.077 184.65 592.011 184.65C594.811 184.65 597.027 184.267 598.661 183.5C600.294 182.7 601.111 181.35 601.111 179.45C601.111 178.283 600.644 177.283 599.711 176.45C598.811 175.617 597.611 175.2 596.111 175.2Z" fill="white"/>
<defs>
<radialGradient id="paint0_radial_0_2" cx="0" cy="0" r="1" gradientUnits="userSpaceOnUse" gradientTransform="translate(440 443.478) rotate(163.735) scale(406.259 235.767)">
<stop stop-color="#192061"/>
<stop offset="1" stop-color="#0A0C1B"/>
</radialGradient>
</defs>
</svg>
